<svg viewBox="0 0 345.184 115" xmlns="http://www.w3.org/2000/svg" xmlns:xlink="http://www.w3.org/1999/xlink" width="345.183594" height="115.000000" fill="none" customFrame="#000000">
	<g id="布家班logo">
		<path id="路径" d="M37.8455 24.9876L108.043 24.9876L108.043 14.1642L42.8315 14.1642L42.8315 14.1642L39.162 14.1642L39.162 2.78223L26.9511 2.78223L26.9511 11.7086L26.9511 14.1537L3.49327 14.1537L3.49327 24.9771L25.7072 24.9771L25.6657 25.4091C25.3858 28.7078 24.8365 31.9854 23.7688 35.1154C23.3438 36.359 22.8877 37.4972 22.3798 38.5511C21.0944 41.1964 19.6121 43.3252 17.9328 44.906C16.2432 46.4974 14.4188 47.6356 12.4597 48.3312C10.4902 49.0267 8.4274 49.3745 6.26094 49.3745L0 49.3745L0 60.7038C9.58837 61.2623 16.0048 59.7764 16.0048 59.7764L16.0048 63.1909L16.0048 101.479L27.5212 101.479L27.5212 56.7939L31.1907 56.7939L47.3406 56.7939L53.104 56.7939L53.104 110.795L64.5893 110.795L64.5893 56.7939L66.4344 56.7939L81.3715 56.7939L89.8197 56.7939L89.8197 81.5602L89.8197 81.5602C89.8197 81.5602 89.8715 82.5403 89.8197 83.3412C89.7264 84.6797 89.1563 86.5345 88.2233 87.483C87.2801 88.442 84.7093 91.6564 78.2618 94.4808L83.9941 104.798C89.6849 102.68 93.9971 99.7608 96.9306 96.0511C99.8538 92.3414 101.326 88.284 101.326 83.8787L101.326 59.4286C101.326 55.1076 100.196 51.7879 97.9568 49.4588C95.7074 47.1297 91.9758 45.9705 86.7617 45.9705L66.4344 45.9705L64.5997 45.9705L64.5997 33.7348L53.0936 33.7348L53.0936 45.9705L51.2485 45.9705L35.9693 45.9705L31.6261 45.9599C36.2285 38.2982 37.2858 30.942 37.4724 29.2769C37.576 28.5392 37.7419 26.3471 37.8455 24.9876Z" fill="rgb(255,255,255)" fill-rule="evenodd" />
		<g id="编组">
			<path id="路径" d="M132.568 28.1387L132.537 22.2159L212.427 22.2159L212.427 26.1574L212.437 26.1574L212.437 38.6354L223.673 38.6354L223.673 23.8284C223.673 20.5718 222.751 17.895 220.906 15.8188C219.216 13.9113 216.355 12.8574 212.437 12.6993L208.767 12.6993L208.767 12.6993L181.692 12.6993L179.764 12.7099L174.166 0L163.013 3.25651L166.993 12.7099L164.288 12.6993L136.228 12.6993L136.228 12.6993L132.558 12.6993L132.558 9.51659L121.301 9.51659L121.301 38.6249L132.568 38.6249L132.568 28.1387Z" fill="rgb(255,255,255)" fill-rule="evenodd" />
			<path id="路径" d="M198.775 70.2098C197.511 67.9124 196.847 65.7624 196.495 64.2132C203.212 61.4415 211.308 57.795 217.206 54.2013L212.863 46.0864C207.97 48.7 202.777 51.1977 197.283 53.6111C191.789 56.014 186.399 58.1534 181.102 60.0398C179.257 56.3723 177.007 53.0315 174.364 50.0068C175.245 49.1953 176.085 48.3944 176.893 47.6251C177.681 46.8663 178.458 46.0442 179.246 45.1695C180.2 44.1472 181.392 42.3978 182.128 41.2385L207.078 41.2385L207.078 31.9116L137.659 31.9116L137.659 41.2385L164.413 41.2385C163.532 43.1039 161.966 44.9693 161.479 45.5173C149.569 57.6475 121.291 55.3922 121.291 55.3922L121.291 65.4252L128.153 65.4252C133.771 65.4252 139.597 64.7507 145.661 63.4123C151.704 62.0633 157.416 60.0925 162.785 57.4894C162.785 57.4894 165.429 55.9929 166.403 55.1498C167.16 56.3091 168.258 58.1639 169.409 60.356C168.435 61.178 167.212 62.1476 166.351 62.8221C166.351 62.8115 166.341 62.8115 166.341 62.801C163.718 64.9931 156.058 70.5681 143.443 72.9499C130.848 75.3212 123.727 74.5202 121.301 74.0881L121.301 84.3846L128.164 84.3846C135.461 84.3846 142.779 83.4466 150.118 81.5707C157.437 79.6948 164.102 76.8598 170.104 73.0342C171.254 72.3281 172.664 71.2321 173.649 70.4311C173.794 70.9159 173.949 71.4007 174.063 71.8644C174.478 73.5717 174.83 75.6479 175.09 77.8716C173.421 79.21 171.016 80.9068 170.321 81.3915C166.849 83.6785 159.074 87.9889 146.293 90.5603C132.351 93.3637 123.996 92.8157 121.312 92.4995L121.312 102.722L128.174 102.722C134.984 102.722 141.992 102.027 149.165 100.635C156.276 99.2654 163.324 96.6834 170.311 92.9105C171.969 92.0569 173.742 90.9819 175.09 90.1388C174.81 92.0779 174.385 93.9012 173.732 95.4504C172.032 99.5395 167.232 102.701 164.879 104.05L164.879 104.05C164.879 104.05 162.35 105.41 161.697 105.62L168.103 115C168.103 115 169.295 114.547 170.28 113.967C173.41 112.176 176.012 110.437 178.106 108.771C180.189 107.096 181.9 105.283 183.216 103.323C184.543 101.363 185.486 99.2127 186.046 96.8415C186.606 94.4808 186.886 91.7512 186.886 88.6423C186.886 82.6984 186.409 77.3868 185.445 72.7391L184.118 69.0084C184.118 69.0084 185.787 68.4077 188.399 67.417C189.146 70.1887 190.193 72.8129 190.193 72.8129C193.064 79.8213 196.63 85.9759 200.963 91.2138C205.617 96.8415 211.194 101.9 217.683 106.379L224.151 97.9059C211.391 93.2056 201.616 75.7638 198.775 70.2098Z" fill="rgb(255,255,255)" fill-rule="evenodd" />
		</g>
		<g id="编组">
			<path id="路径" d="M274.497 83.4888L263.613 86.3133L260.596 87.1458L260.596 58.0902L262.41 58.0902L262.41 58.0797L270.112 58.0797L270.112 48.0467L262.41 48.0467L262.41 48.0361L260.596 48.0361L260.596 21.2569L265.624 21.2569L265.624 21.278L272.527 21.278L272.527 11.1185L237.398 11.1185L237.398 21.278L245.348 21.278L245.348 21.2569L249.826 21.2569L249.826 48.0361L247.981 48.0361L247.981 48.0467L238.963 48.0467L238.963 58.0797L247.981 58.0797L247.981 58.0902L249.826 58.0902L249.826 89.8754L247.784 90.4129L247.784 90.4129L236.33 93.3848L238.237 103.713C239.046 103.386 240.445 102.933 242.446 102.364C244.447 101.795 246.737 101.163 249.308 100.467C251.868 99.7714 254.564 99.0653 257.373 98.3276C260.182 97.5899 262.846 96.9154 265.375 96.3041C267.904 95.6928 270.123 95.1659 272.051 94.7127C273.979 94.2596 275.254 93.9645 275.896 93.7959L274.497 83.4888Z" fill="rgb(255,255,255)" fill-rule="evenodd" />
			<rect id="矩形" width="9.557269" height="51.134533" x="274.953125" y="22.974731" fill="rgb(255,255,255)" />
			<path id="路径" d="M281.555 108.36C286.883 107.57 289.433 105.821 290.791 104.788C292.149 103.755 294.554 101.847 296.814 97.6003C299.084 93.3532 299.322 90.6974 300.12 86.4081C300.919 82.1188 301.064 76.1011 301.105 74.6151L301.105 4.38416L291.061 4.38416L291.061 74.6045L291.04 74.6045C290.988 76.3329 290.853 80.0637 290.542 82.1188C290.128 84.8483 289.983 87.2512 288.832 89.9807C287.682 92.7103 286.147 95.3977 284.022 96.9258C281.897 98.454 278.311 98.728 274.092 98.7701L272.268 98.7701L272.268 108.814C274.061 108.877 277.73 108.919 281.555 108.36Z" fill="rgb(255,255,255)" fill-rule="evenodd" />
			<path id="路径" d="M330.629 98.2116L328.794 98.2116L328.794 60.767L342.291 60.767L342.291 50.6287L328.794 50.6287L328.794 18.4114L330.629 18.4114L330.629 18.4009L343.016 18.4009L343.016 8.17816L305.119 8.17816L305.119 18.4009L315.951 18.4009L315.951 18.4114L317.786 18.4114L317.786 50.6287L305.482 50.6287L305.482 60.767L317.786 60.767L317.786 98.2116L315.951 98.2116L315.951 98.2116L301.512 98.2116L301.512 108.361L345.183 108.361L345.183 98.2116L330.629 98.2116Z" fill="rgb(255,255,255)" fill-rule="evenodd" />
		</g>
	</g>
</svg>
