<svg viewBox="0 0 40.3045 40.3047" xmlns="http://www.w3.org/2000/svg" xmlns:xlink="http://www.w3.org/1999/xlink" width="40.304504" height="40.304688" fill="none">
	<defs>
		<filter id="pixso_custom_mask_type_alpha">
			<feColorMatrix type="matrix" values="0 0 0 0 1 0 0 0 0 1 0 0 0 0 1 0 0 0 1 0 " />
		</filter>
	</defs>
	<mask id="mask_11" width="40.304501" height="40.304493" x="0.000000" y="0.000000" maskUnits="userSpaceOnUse">
		<g filter="url(#pixso_custom_mask_type_alpha)">
			<g id="clip0_161_5017">
				<rect id="矩形 138" width="40.304501" height="40.304493" x="0.000000" y="0.000000" fill="rgb(0,0,0)" />
			</g>
		</g>
	</mask>
	<rect id="Like 1" width="40.304501" height="40.304493" x="0.000000" y="0.000000" />
	<g id="clip path group" mask="url(#mask_11)">
		<g id="组合 138">
			<path id="矢量 155" d="M20.1527 8.93435C20.4971 8.5041 20.8678 8.10586 21.265 7.73977C21.9096 7.14562 22.6078 6.6501 23.3596 6.25322C23.5188 6.1692 23.6802 6.08961 23.8442 6.01444C24.4532 5.73521 25.0778 5.52461 25.7181 5.38264C26.0099 5.31794 26.305 5.26749 26.6032 5.2313C27.3681 5.1385 28.119 5.14309 28.8561 5.24505C29.0036 5.26545 29.1505 5.28975 29.2968 5.31795C29.4662 5.35026 29.6342 5.38771 29.8009 5.4303C30.5693 5.62664 31.309 5.93216 32.0199 6.34686C32.3219 6.52298 32.6115 6.71495 32.8891 6.92278C33.4785 7.36419 34.0128 7.87711 34.492 8.46153C35.2651 9.40432 35.8585 10.492 36.2724 11.7243C36.7204 13.0587 36.9449 14.529 36.9458 16.1351C36.9458 18.2386 36.1141 20.494 34.4506 22.9013C33.1679 24.7575 31.4107 26.6795 29.179 28.6672C27.5794 30.0919 25.8098 31.4882 23.8702 32.8562C22.8474 33.5774 21.946 34.1774 21.166 34.6561L20.1693 35.2665L19.1742 34.657C18.3828 34.1741 17.4797 33.5774 16.4649 32.8668C14.5206 31.5055 12.747 30.1156 11.144 28.697C8.90721 26.7174 7.14594 24.8021 5.86029 22.951C4.19257 20.5498 3.3587 18.2977 3.3587 16.1947C3.3587 14.5625 3.58343 13.0685 4.03288 11.7127C4.44799 10.4604 5.04378 9.3552 5.82023 8.39713C6.31988 7.78064 6.87937 7.24234 7.49867 6.78227C7.75755 6.58996 8.02687 6.41132 8.30665 6.24635C9.03341 5.81779 9.79013 5.50386 10.5767 5.30456C10.7331 5.26494 10.8906 5.22986 11.0494 5.1993C11.6998 5.07371 12.3478 5.0215 12.9932 5.04266C13.3415 5.05408 13.689 5.08686 14.0358 5.14099C14.2596 5.17592 14.4811 5.21944 14.7007 5.27158C15.4312 5.44502 16.1383 5.71368 16.8222 6.07757C17.6961 6.54264 18.5015 7.14712 19.2383 7.89101C19.5609 8.21669 19.8657 8.56448 20.1527 8.93435ZM17.5615 9.50424C18.151 10.0994 18.6702 10.7931 19.1191 11.5851L19.4098 12.098C19.7305 12.6639 20.5451 12.666 20.8687 12.1016L21.162 11.5902C21.6432 10.7511 22.2111 10.0298 22.8657 9.42649C23.4186 8.91681 24.0199 8.50318 24.6695 8.18562C24.7236 8.15921 24.7779 8.13346 24.8327 8.10837C25.3299 7.88036 25.84 7.71369 26.3627 7.60835C26.5369 7.57324 26.7125 7.54494 26.8896 7.52346C27.5018 7.44918 28.0997 7.45981 28.6833 7.55535C28.7395 7.56455 28.7955 7.57454 28.8515 7.58532C29.491 7.7216 30.233 7.98817 30.8264 8.33431C31.0083 8.44046 31.1844 8.55449 31.3547 8.67641C31.8404 9.02429 32.2787 9.43648 32.6695 9.91308C33.2638 10.638 33.7233 11.4836 34.0477 12.4499C34.4168 13.5491 34.6017 14.7775 34.6025 16.1351C34.6025 17.7641 33.9062 19.5862 32.5138 21.6013C31.3363 23.3053 29.701 25.0895 27.6079 26.9538C26.0743 28.3197 24.3738 29.6611 22.5065 30.978C21.6292 31.5968 20.8498 32.1194 20.1685 32.5461C19.4766 32.1156 18.6944 31.5949 17.822 30.9841C15.9503 29.6737 14.2462 28.3385 12.7096 26.9786C10.6123 25.1225 8.97371 23.3451 7.79395 21.6465C6.39931 19.6385 5.70199 17.8212 5.70199 16.1947C5.70199 14.8076 5.8881 13.5527 6.26031 12.4298C6.58758 11.4426 7.0512 10.5788 7.65116 9.83852C8.06273 9.3306 8.5265 8.89456 9.04239 8.53022C9.1937 8.42333 9.34946 8.32269 9.50976 8.22819C10.112 7.87309 10.738 7.62649 11.3876 7.48842C11.9025 7.389 12.5262 7.32975 13.0344 7.3561C13.2466 7.36711 13.4582 7.38908 13.6692 7.42202C13.7646 7.43691 13.8595 7.45399 13.954 7.47324C14.5576 7.59628 15.1426 7.80846 15.7089 8.10977C16.3734 8.46338 16.991 8.92823 17.5615 9.50424Z" fill="rgb(0,0,0)" fill-rule="evenodd" />
		</g>
	</g>
</svg>
