<svg viewBox="0 0 200 200" xmlns="http://www.w3.org/2000/svg" xmlns:xlink="http://www.w3.org/1999/xlink" width="200.000000" height="200.000000" fill="none">
	<rect id="12 1" width="200.000000" height="200.000000" x="0.000000" y="0.000000" />
	<path id="矢量 248" d="M46.0003 110.104C50.0628 110.104 53.9794 114 55.3128 119.375C56.8753 125.708 54.3128 132.167 49.7294 133.5C49.1669 133.667 48.5835 133.75 48.0003 133.75C43.9378 133.75 40.0212 129.854 38.6878 124.479C36.8753 117.167 38.9587 111.896 44.2712 110.354C44.8337 110.188 45.4171 110.104 46.0003 110.104M46.0003 106.813C45.1253 106.813 44.2294 106.938 43.3544 107.188C37.0003 109.042 33.0419 115.292 35.5003 125.25C37.2294 132.271 42.5003 137.021 48.0003 137.021C48.8753 137.021 49.7712 136.896 50.6462 136.646C57.0003 134.792 60.5212 126.708 58.5003 118.583C56.7712 111.563 51.4794 106.813 46.0003 106.813L46.0003 106.813ZM154 110.104C154.584 110.104 155.167 110.188 155.729 110.354C161.042 111.896 163.125 117.167 161.313 124.479C159.979 129.854 156.063 133.75 152 133.75C151.417 133.75 150.834 133.667 150.271 133.5C145.688 132.167 143.125 125.708 144.688 119.375C146.021 114 149.938 110.104 154 110.104ZM154 106.813C148.5 106.813 143.229 111.563 141.5 118.583C139.479 126.708 143 134.813 149.354 136.646C150.229 136.896 151.125 137.021 152 137.021C157.5 137.021 162.771 132.271 164.5 125.25C166.959 115.292 163 109.021 156.646 107.188C155.771 106.937 154.896 106.812 154 106.812L154 106.813Z" fill="rgb(30,86,227)" fill-rule="nonzero" />
	<path id="矢量 249" d="M101.063 184.354C71.9588 184.354 48.292 160.688 48.292 131.583L48.292 61.6666L134.104 61.6666C143.813 61.6666 151.709 69.5625 151.709 79.2707L151.709 133.729C151.709 161.646 128.979 184.354 101.063 184.354L101.063 184.354Z" fill="rgb(255,255,255)" fill-rule="nonzero" />
	<path id="矢量 250" d="M134.104 63.3125C142.896 63.3125 150.063 70.4791 150.063 79.2709L150.063 133.729C150.063 160.75 128.084 182.729 101.063 182.729C72.8754 182.729 49.9379 159.792 49.9379 131.604L49.9379 63.3127L134.104 63.3127M134.104 60.0209L46.8129 60.0209L46.667 60.1668L46.667 131.583C46.667 161.625 71.0211 186 101.084 186C129.959 186 153.354 162.583 153.354 133.729L153.354 79.2708C153.354 68.6458 144.729 60.0208 134.104 60.0208L134.104 60.0209Z" fill="rgb(30,86,227)" fill-rule="nonzero" />
	<path id="矢量 251" d="M100.625 169C84.9791 169 72.25 159.604 72.25 148.063C72.2709 145.646 73.5209 143.646 75.6041 142.583C77.8957 141.417 80.625 141.646 82.75 143.167C87.5209 146.604 93.8541 148.5 100.625 148.5C107.396 148.5 113.75 146.604 118.5 143.167C120.625 141.646 123.354 141.438 125.625 142.583C127.708 143.646 128.958 145.646 128.979 147.958C129 159.604 116.271 169 100.625 169L100.625 169ZM78.6875 145.125C78.1459 145.125 77.6041 145.25 77.1041 145.5C76.5207 145.792 75.5625 146.5 75.5625 147.958C75.5625 157.771 86.8125 165.688 100.646 165.688C114.479 165.688 125.729 157.771 125.729 148.042C125.729 146.479 124.75 145.792 124.188 145.5C123.021 144.896 121.563 145.042 120.459 145.813C115.146 149.646 108.104 151.771 100.646 151.771C93.1877 151.771 86.167 149.667 80.8336 145.813C80.1877 145.375 79.4377 145.125 78.6877 145.125L78.6875 145.125Z" fill="rgb(30,86,227)" fill-rule="nonzero" />
	<path id="矢量 252" d="M101.063 15.6459C68.2295 15.6459 41.6045 42.2709 41.6045 75.1043L41.6045 106.771C41.6045 108.771 43.2295 110.396 45.2295 110.396L63.7711 105.062C72.6252 102.062 78.9586 100.812 89.5836 92.6459C92.0211 90.7709 94.1252 88.4793 95.8336 85.9168L101.604 77.3127C103.292 75.9168 105.854 76.6043 106.646 78.6252L123.292 105.771C124.084 107.063 126.063 106.375 125.896 104.875L123.854 87.2502C123.792 86.0211 125.334 85.4168 126.104 86.3752L137.834 100.813C139.75 103.167 142.063 105.209 144.646 106.813L148 108.875C150.188 110.229 153.084 110.396 155.146 108.875C157.125 107.438 158.396 105.104 158.396 102.479L158.396 72.9793C158.396 41.3127 132.729 15.6459 101.063 15.6459L101.063 15.6459Z" fill="rgb(105,147,255)" fill-rule="nonzero" />
	<path id="矢量 253" d="M45.2289 112.042C42.333 112.042 39.958 109.667 39.958 106.771L39.958 75.1041C39.958 41.4166 67.3746 14 101.062 14C133.583 14 160.041 40.4584 160.041 72.9791L160.041 102.458C160.041 105.5 158.583 108.396 156.125 110.187C153.625 112.021 150.021 112.041 147.125 110.271L143.771 108.208C141.021 106.5 138.583 104.375 136.541 101.854L125.625 88.3957L127.521 104.708C127.687 106.146 126.854 107.479 125.479 107.958C124.104 108.437 122.625 107.896 121.875 106.667L105.229 79.5416C104.917 78.8125 104.521 78.4582 104.021 78.3332C103.604 78.2291 103.167 78.2916 102.792 78.5207L97.1875 86.8748C95.3125 89.6664 93.0834 92.0623 90.5625 93.9998C81.2709 101.146 75.125 103.125 68 105.437C66.7916 105.833 65.5625 106.229 64.2709 106.666L45.6668 112.021C45.5418 112.021 45.3752 112.041 45.2293 112.041L45.2289 112.042ZM101.062 17.2916C69.1664 17.2916 43.2289 43.2291 43.2289 75.1041L43.2289 106.771C43.2289 107.792 44.0205 108.646 45.0205 108.75L63.2914 103.5C64.5205 103.083 65.7705 102.666 66.9789 102.271C74.083 99.9582 79.708 98.1457 88.5414 91.3541C90.7705 89.625 92.7705 87.5 94.4373 85L100.208 76.4166C100.292 76.2916 100.417 76.1666 100.521 76.0625C101.75 75.0625 103.312 74.7291 104.833 75.125C106.354 75.5209 107.562 76.5834 108.146 78.0625L124.125 104.042L122.208 87.4375C122.125 86.0834 122.875 84.9166 124.062 84.4584C125.25 84 126.583 84.3543 127.375 85.3334L139.104 99.7709C140.916 102 143.062 103.896 145.5 105.396L148.854 107.458C150.604 108.542 152.75 108.562 154.166 107.521C155.812 106.312 156.75 104.479 156.75 102.438L156.75 72.9791C156.75 42.2707 131.771 17.2916 101.062 17.2916L101.062 17.2916Z" fill="rgb(30,86,227)" fill-rule="nonzero" />
	<path id="矢量 254" d="M80.8958 120.958C80.2917 120.958 79.7083 120.625 79.4167 120.042C78.1251 117.458 76.1042 114.375 73.7708 114.375C71.0208 114.375 68.3124 118.563 67.5833 120.042C67.1667 120.854 66.1874 121.188 65.3749 120.771C64.5624 120.354 64.229 119.375 64.6458 118.562C65.0208 117.792 68.5417 111.083 73.7917 111.083C77.0208 111.083 79.8958 113.604 82.3751 118.562C82.771 119.375 82.4585 120.354 81.646 120.771C81.396 120.896 81.146 120.958 80.896 120.958L80.8958 120.958Z" fill="rgb(30,86,227)" fill-rule="nonzero" />
	<path id="矢量 255" d="M70.75 122.083C70.75 123.614 71.9906 124.854 73.5209 124.854C75.0512 124.854 76.2918 123.614 76.2918 122.083C76.2918 120.553 75.0512 119.312 73.5209 119.312C71.9906 119.312 70.75 120.553 70.75 122.083Z" fill="rgb(30,86,227)" fill-rule="nonzero" />
	<path id="矢量 256" d="M133.875 120.958C133.271 120.958 132.688 120.625 132.396 120.042C131.105 117.458 129.084 114.375 126.75 114.375C124 114.375 121.292 118.563 120.563 120.042C120.167 120.854 119.167 121.188 118.354 120.771C117.542 120.354 117.208 119.375 117.625 118.562C118 117.792 121.521 111.083 126.771 111.083C130 111.083 132.875 113.604 135.355 118.562C135.75 119.375 135.438 120.354 134.625 120.771C134.375 120.896 134.125 120.958 133.875 120.958L133.875 120.958Z" fill="rgb(30,86,227)" fill-rule="nonzero" />
	<path id="矢量 257" d="M123.708 122.083C123.708 123.614 124.949 124.854 126.479 124.854C128.009 124.854 129.25 123.614 129.25 122.083C129.25 120.553 128.009 119.312 126.479 119.312C124.949 119.312 123.708 120.553 123.708 122.083Z" fill="rgb(30,86,227)" fill-rule="nonzero" />
</svg>
