<svg viewBox="0 0 128.048 128.048" xmlns="http://www.w3.org/2000/svg" xmlns:xlink="http://www.w3.org/1999/xlink" width="128.047729" height="128.047852" fill="none">
	<defs>
		<clipPath id="clipPath_3">
			<rect width="128.047745" height="128.047714" x="0.000000" y="0.000000" fill="rgb(255,255,255)" />
		</clipPath>
	</defs>
	<rect id="icon8" width="128.047760" height="128.047729" x="0.000000" y="0.000000" fill="rgb(255,255,255)" fill-opacity="0" />
	<g id="ICON/basic" opacity="0" clip-path="url(#clipPath_3)" customFrame="url(#clipPath_3)">
		<rect id="ICON/basic" width="128.047745" height="128.047714" x="0.000000" y="0.000000" fill="rgb(255,255,255)" />
		<rect id="矩形 43" width="101.371132" height="90.700462" x="13.338257" y="18.673828" rx="10.670645" fill="rgb(196,196,196)" fill-opacity="0" />
		<rect id="矩形 43" width="100.837601" height="90.166931" x="13.605023" y="18.940594" rx="10.403878" stroke="rgb(255,0,213)" stroke-width="0.533532" />
		<rect id="矩形 44" width="101.371109" height="90.700493" x="0.000000" y="0.000000" rx="10.670645" fill="rgb(196,196,196)" fill-opacity="0" transform="matrix(0,1,-1,0,109.374,13.3379)" />
		<rect id="矩形 44" width="100.837578" height="90.166962" x="0.266766" y="0.266766" rx="10.403878" stroke="rgb(255,0,213)" stroke-width="0.533532" transform="matrix(0,1,-1,0,109.374,13.3379)" />
		<rect id="矩形 45" width="96.035789" height="96.035812" x="0.000000" y="0.000000" rx="10.670645" fill="rgb(196,196,196)" fill-opacity="0" transform="matrix(0,1,-1,0,112.042,16.0059)" />
		<rect id="矩形 45" width="95.502258" height="95.502281" x="0.266766" y="0.266766" rx="10.403878" stroke="rgb(255,0,213)" stroke-width="0.533532" transform="matrix(0,1,-1,0,112.042,16.0059)" />
		<ellipse id="椭圆 25" rx="53.353230" ry="53.353214" cx="64.02388" cy="64.0241089" fill="rgb(196,196,196)" fill-opacity="0" />
		<ellipse id="椭圆 25" rx="53.086464" ry="53.086449" cx="64.02388" cy="64.0241089" stroke="rgb(255,0,213)" stroke-width="0.533532" />
		<path id="矢量 13" d="M128.048 0L128.048 128.048L0 128.048L0 0L128.048 0ZM10.6706 10.6706L10.6706 117.377L117.377 117.377L117.377 10.6706L10.6706 10.6706Z" fill="rgb(255,0,213)" fill-opacity="0.200000003" fill-rule="evenodd" />
		<path id="矢量 13" d="M128.048 0L128.048 128.048L0 128.048L0 0L128.048 0ZM125.38 125.38L125.38 2.66766L2.66766 2.66766L2.66766 125.38L125.38 125.38ZM8.00299 8.00298L120.045 8.00298L120.045 120.045L8.00299 120.045L8.00299 8.00298ZM10.6706 10.6706L10.6706 117.377L117.377 117.377L117.377 10.6706L10.6706 10.6706Z" fill="rgb(255,0,213)" fill-opacity="0" fill-rule="evenodd" />
		<line id="直线 43" x1="10.6706543" x2="117.377113" y1="64.0234375" y2="64.0234375" stroke="rgb(255,0,206)" stroke-width="0.533532" />
		<line id="直线 44" x1="0" x2="106.706429" y1="0" y2="0" stroke="rgb(255,0,206)" stroke-width="0.533532" transform="matrix(0,-1,1,0,64.0239,117.377)" />
	</g>
	<path id="矢量 36" d="M26.6766 48.0182C26.6766 27.392 43.3977 10.6709 64.0239 10.6709C84.6501 10.6709 101.371 27.392 101.371 48.0182C101.371 67.6485 82.041 88.574 66.3776 97.448C64.9162 98.2758 63.1316 98.2758 61.6702 97.448C46.0068 88.5736 26.6766 67.6485 26.6766 48.0182ZM57.4055 19.4173L57.4042 19.4173L57.4042 19.4176C55.7708 19.7941 54.1713 20.3138 52.6043 20.9765C50.9878 21.6603 49.456 22.4741 48.0088 23.4182L48.0075 23.4185C46.3142 24.5237 44.7355 25.8071 43.274 27.2686C41.8125 28.73 40.5295 30.3081 39.4249 32.0021L39.4242 32.0031L39.4241 32.0032Q38.0081 34.1735 36.9826 36.5985C36.3196 38.1658 35.7998 39.7657 35.4234 41.3988C34.9271 43.5481 34.6796 45.7546 34.6796 48.0182C34.6796 51.6298 35.5576 55.5092 37.3121 59.6566C39.0198 63.6926 41.4608 67.7657 44.6339 71.8757C47.6272 75.7524 51.0386 79.3677 54.8668 82.7209C57.9396 85.4116 60.9915 87.6866 64.0239 89.546C67.0563 87.6866 70.1082 85.4113 73.181 82.7212C77.0092 79.3677 80.4206 75.7528 83.4139 71.8757C86.587 67.7657 89.028 63.6926 90.7357 59.6566C92.4902 55.5092 93.3682 51.6298 93.3682 48.0182C93.3682 45.7549 93.1207 43.5484 92.6244 41.3995L92.6244 41.3991C92.248 39.7661 91.7282 38.1658 91.0652 36.5985Q90.0492 34.1963 88.6497 32.0432Q88.6363 32.0227 88.6229 32.0021C87.5183 30.3081 86.2353 28.7304 84.7738 27.2686C83.3123 25.8071 81.7336 24.5237 80.0403 23.4188L80.0403 23.4185C78.5931 22.4745 77.06 21.6607 75.4435 20.9765C73.8765 20.3138 72.2757 19.7941 70.6436 19.4173L70.6423 19.4173C68.4943 18.9217 66.2878 18.6739 64.0239 18.6739C61.76 18.6739 59.5548 18.9217 57.4055 19.4173Z" fill="rgb(0,0,0)" fill-rule="evenodd" />
	<path id="椭圆 57(边框)" d="M101.028 86.5346C98.3121 85.6149 95.2965 84.8088 91.9813 84.1162L90.3447 91.9501C93.3448 92.5768 96.0503 93.2984 98.4614 94.1148C100.795 94.905 102.762 95.7523 104.362 96.6567C105.792 97.4652 106.833 98.2589 107.486 99.038C107.856 99.4783 108.04 99.83 108.04 100.093C108.04 100.276 107.942 100.514 107.745 100.806C107.379 101.352 106.774 101.928 105.931 102.535C104.94 103.248 103.695 103.942 102.197 104.617C100.627 105.325 98.8322 105.986 96.8124 106.601C92.596 107.884 87.7264 108.881 82.2037 109.592C76.4256 110.336 70.3657 110.708 64.0239 110.708C57.6821 110.708 51.6222 110.336 45.8442 109.592C40.3214 108.881 35.4518 107.884 31.2354 106.601C29.2156 105.986 27.4207 105.325 25.8505 104.617C24.3528 103.942 23.1082 103.248 22.1169 102.535C21.274 101.928 20.6692 101.352 20.3024 100.806C20.1058 100.514 20.0075 100.276 20.0075 100.093C20.0075 99.83 20.1921 99.4783 20.5613 99.0379C21.2146 98.2589 22.2563 97.4652 23.6863 96.6567C25.286 95.7523 27.2527 94.905 29.5865 94.1148C31.9975 93.2984 34.7031 92.5768 37.7031 91.9501L36.0665 84.1162C32.7513 84.8088 29.7357 85.6149 27.0197 86.5346C24.2094 87.4862 21.7855 88.538 19.7478 89.69C17.4763 90.9741 15.7034 92.376 14.429 93.8957C13.675 94.7949 13.0951 95.7342 12.6893 96.7136C12.3563 97.5171 12.1448 98.3338 12.0547 99.1636C12.0212 99.4716 12.0045 99.7814 12.0045 100.093C12.0045 100.532 12.037 100.967 12.1021 101.396C12.305 102.736 12.8245 104.027 13.6607 105.271C14.5616 106.611 15.8221 107.864 17.4421 109.03C20.2306 111.037 24.0515 112.779 28.9049 114.257C33.5496 115.671 38.8554 116.762 44.8222 117.53C50.9395 118.317 57.3401 118.711 64.0239 118.711C70.7077 118.711 77.1083 118.317 83.2256 117.53C89.1924 116.762 94.4982 115.671 99.143 114.257C103.996 112.779 107.817 111.037 110.606 109.03C112.226 107.864 113.486 106.611 114.387 105.271C115.223 104.027 115.743 102.736 115.946 101.396C116.011 100.967 116.043 100.532 116.043 100.093C116.043 98.9418 115.815 97.8153 115.359 96.7136C114.953 95.7342 114.373 94.7949 113.619 93.8957C112.344 92.376 110.572 90.9741 108.3 89.69C106.262 88.538 103.838 87.4862 101.028 86.5346Z" fill="rgb(0,0,0)" fill-rule="evenodd" />
	<path id="椭圆 37(边框)" d="M64.0239 32.0117C72.8638 32.0117 80.0299 39.1778 80.0299 48.0177C80.0299 56.8575 72.8638 64.0237 64.0239 64.0237C55.1841 64.0237 48.0179 56.8575 48.0179 48.0177C48.0179 39.1778 55.1841 32.0117 64.0239 32.0117ZM62.0969 40.2454L62.0969 40.2454C61.6937 40.3449 61.2985 40.4765 60.9112 40.6403C60.4919 40.8177 60.0933 41.0274 59.7154 41.2694C59.2312 41.5795 58.7811 41.9426 58.3649 42.3587C57.9488 42.7749 57.5857 43.225 57.2757 43.7091C57.0336 44.0871 56.8239 44.4857 56.6466 44.905C56.4827 45.2923 56.3511 45.6875 56.2516 46.0907C56.0978 46.714 56.0209 47.3564 56.0209 48.0177C56.0209 48.679 56.0978 49.3214 56.2517 49.9448L56.2517 49.9448C56.3511 50.3479 56.4828 50.7431 56.6466 51.1304C56.8239 51.5497 57.0336 51.9483 57.2756 52.3262C57.5857 52.8103 57.9488 53.2605 58.3649 53.6766C58.7811 54.0928 59.2312 54.4558 59.7153 54.7659C60.0932 55.0079 60.4919 55.2177 60.9112 55.395C61.2986 55.5589 61.6938 55.6905 62.097 55.79C62.7203 55.9438 63.3626 56.0207 64.0239 56.0207C64.6852 56.0207 65.3275 55.9438 65.9508 55.79C66.354 55.6905 66.7493 55.5589 67.1366 55.395C67.556 55.2177 67.9546 55.0079 68.3326 54.7659C68.8167 54.4558 69.2668 54.0928 69.6829 53.6766C70.099 53.2605 70.4621 52.8104 70.7721 52.3263C71.0142 51.9484 71.2239 51.5497 71.4013 51.1303C71.5651 50.743 71.6967 50.3478 71.7962 49.9446C71.95 49.3213 72.0269 48.679 72.0269 48.0177C72.0269 47.3564 71.95 46.7141 71.7962 46.0908C71.6967 45.6876 71.5651 45.2923 71.4013 44.905C71.2239 44.4856 71.0141 44.0869 70.7721 43.709C70.462 43.2249 70.099 42.7748 69.6829 42.3587C69.2667 41.9426 68.8166 41.5795 68.3325 41.2694L68.3325 41.2694C67.9545 41.0274 67.5559 40.8177 67.1366 40.6403C66.7493 40.4765 66.3541 40.3449 65.951 40.2454C65.3276 40.0916 64.6852 40.0147 64.0239 40.0147C63.3626 40.0147 62.7203 40.0916 62.0969 40.2454Z" fill="rgb(0,0,0)" fill-rule="evenodd" />
	<path id="减去顶层" />
</svg>
