<svg viewBox="0 0 40.3045 40.3047" xmlns="http://www.w3.org/2000/svg" xmlns:xlink="http://www.w3.org/1999/xlink" width="40.304504" height="40.304688" fill="none">
	<rect id="add 1" width="40.304501" height="40.304493" x="0.000000" y="0.000000" />
	<path id="矢量 70" d="M36.9458 10.0763L36.9458 24.3508L34.4268 24.3508L34.4268 12.5953L5.87773 12.5953L5.87773 32.7476L26.03 32.7476L26.03 35.2666L3.3587 35.2666L3.3587 10.0763L8.39761 5.87793L31.8881 5.87793L36.9458 10.0763ZM33.5871 26.0302L33.5871 29.3889L36.9458 29.3889L36.9458 31.9079L33.5871 31.9079L33.5871 35.2666L31.068 35.2666L31.068 31.9079L27.7093 31.9079L27.7093 29.3889L31.068 29.3889L31.068 26.0302L33.5871 26.0302ZM15.9539 16.7937C15.9539 17.0268 15.9764 17.2554 16.022 17.4792C16.0742 17.7357 16.156 17.9862 16.2679 18.2303C16.3127 18.3282 16.3624 18.4234 16.4155 18.5166C16.6064 18.8514 16.8498 19.1565 17.147 19.4308C17.2588 19.5341 17.3762 19.6304 17.4979 19.7203C17.7974 19.9414 18.1268 20.122 18.486 20.2623C18.6531 20.3276 18.8228 20.3825 18.9953 20.4271C19.3684 20.5236 19.7542 20.5723 20.1522 20.5723C20.5503 20.5723 20.9362 20.5236 21.3092 20.4271C21.4817 20.3825 21.6514 20.3276 21.8185 20.2623C22.1777 20.122 22.5071 19.9414 22.8065 19.7203C22.9283 19.6304 23.0456 19.5341 23.1575 19.4308C23.4547 19.1566 23.6982 18.8514 23.889 18.5166C23.942 18.4234 23.9918 18.3282 24.0366 18.2303C24.1485 17.9862 24.2303 17.7357 24.2825 17.4792C24.328 17.2554 24.3506 17.0268 24.3506 16.7937L26.8697 16.7937C26.8697 17.21 26.8278 17.6176 26.7442 18.0164C26.6538 18.4476 26.5141 18.8685 26.326 19.2792C26.2119 19.528 26.0834 19.7678 25.939 19.9974C25.6446 20.4654 25.2864 20.8932 24.8656 21.2815C24.6381 21.4916 24.3983 21.6846 24.1464 21.8597C23.7121 22.1615 23.2412 22.4113 22.7344 22.6092C22.4207 22.7316 22.1014 22.831 21.7767 22.9068C21.2496 23.0298 20.7081 23.0913 20.1522 23.0913C19.5965 23.0913 19.055 23.0298 18.5278 22.9068C18.2032 22.831 17.8838 22.7316 17.5701 22.6092C17.0633 22.4113 16.5924 22.1615 16.1581 21.8597C15.9062 21.6846 15.6664 21.4916 15.4389 21.2815C15.0181 20.8932 14.6599 20.4654 14.3655 19.9974C14.2211 19.7678 14.0925 19.528 13.9785 19.2792C13.7903 18.8685 13.6507 18.4476 13.5603 18.0164C13.4767 17.6176 13.4348 17.21 13.4348 16.7937L15.9539 16.7937ZM7.32011 10.0763L32.9754 10.0763L30.927 8.39696L9.36189 8.39696L7.32011 10.0763Z" fill="rgb(0,0,0)" fill-rule="nonzero" />
</svg>
