<svg viewBox="0 0 40.3045 40.3047" xmlns="http://www.w3.org/2000/svg" xmlns:xlink="http://www.w3.org/1999/xlink" width="40.304504" height="40.304688" fill="none">
	<rect id="return goods 1" width="40.304501" height="40.304493" x="0.000000" y="0.000000" />
	<path id="矢量 63" d="M32.7473 34.4273L26.8696 31.0684L20.1522 35.2668L13.4348 31.0684L7.55706 34.4273L5.03802 35.8667L5.03803 32.9654L5.03812 4.19874L35.2663 4.19873L35.2663 35.8667L32.7473 34.4273ZM26.8118 28.134L20.1522 32.2962L13.4926 28.134L7.55706 31.5259L7.55714 6.71777L32.7473 6.71776L32.7473 31.5259L26.8118 28.134Z" fill="rgb(0,0,0)" fill-rule="evenodd" />
	<path id="矢量 64" d="M16.7935 15.5342L16.7935 18.0532L20.1522 18.0532C22.2391 18.0532 23.9308 19.7449 23.9308 21.8318L26.4498 21.8318C26.4498 18.3537 23.6303 15.5342 20.1522 15.5342L16.7935 15.5342Z" fill="rgb(0,0,0)" fill-rule="nonzero" />
	<path id="矢量 65" d="M16.9427 13.4859L13.4359 16.9926L17.2822 20.8389L18.1728 21.7296L19.954 19.9483L19.0634 19.0577L16.9984 16.9926L19.6145 14.3764L17.8333 12.5952L16.9427 13.4859Z" fill="rgb(0,0,0)" fill-rule="evenodd" />
</svg>
